# xmcd CD database file generated by Grip 3.2.0
# 
# Track frame offsets:
#       150
#       17955
#       36919
#       47026
#       60477
#       75554
#       100670
#       114841
#       125966
#       138534
#       149359
#       158539
#       170369
#       187599
#       207853
#       218718
#       227999
#       239088
#       251019
# 
# Disc length: 3523 seconds
# 
# Revision: 1
# Processed by: cddbd v1.5.1PL2 Copyright (c) Steve Scherf et al.
# Submitted via: Grip 3.2.0
# 
DISCID=080dc113
DTITLE=Various Artist - 1. velký trampský zpěvník  Pís - Pr
DYEAR=2005
DGENRE=Country
TTITLE0=Píseň starého pistolníka
TTITLE1=Píseň svatebních zvonů
TTITLE2=Píseň zapadáků (Tak to vidíš, Máňo)
TTITLE3=Pivo, pivo
TTITLE4=Pláčou moje modré oči
TTITLE5=Pluj obláčku
TTITLE6=Pochod amerických námořníků
TTITLE7=Pojď děvče
TTITLE8=Pojď se mnou do chaty
TTITLE9=Pomalu jedu tichou pustinou
TTITLE10=Poplujem spolu
TTITLE11=Posázavskej Dan
TTITLE12=Pošta
TTITLE13=Pozdrav naposledy
TTITLE14=Praktická holka
TTITLE15=Proklatá fordka
TTITLE16=Prokletej bar
TTITLE17=Před chajdou
TTITLE18=Při polárni záři
EXTD=Vložila Agina
EXTT0=
EXTT1=
EXTT2=
EXTT3=
EXTT4=
EXTT5=
EXTT6=
EXTT7=
EXTT8=
EXTT9=
EXTT10=
EXTT11=
EXTT12=
EXTT13=
EXTT14=
EXTT15=
EXTT16=
EXTT17=
EXTT18=
PLAYORDER=
